<?xml version="1.0" encoding="utf-8"?>
<!-- Generator: Adobe Illustrator 19.0.0, SVG Export Plug-In . SVG Version: 6.00 Build 0)  -->
<svg version="1.1" id="Layer_1" xmlns="http://www.w3.org/2000/svg" xmlns:xlink="http://www.w3.org/1999/xlink" x="0px" y="0px"
	 viewBox="0 0 692 704" style="enable-background:new 0 0 692 704;" xml:space="preserve">
<style type="text/css">
	.st0{fill:none;stroke:#FFF;stroke-width:2;stroke-linecap:round;stroke-linejoin:round;stroke-miterlimit:10;}
	.loveLine{fill:none;stroke:#FFF;stroke-width:5;stroke-miterlimit:10;}
	path {
  stroke:#000;
 	stroke-dasharray: 2000;
  stroke-dashoffset: -2000;
  stroke-width:3;
  animation: my_animation 4s linear forwards;
 	 
}

@keyframes my_animation{
  0%{
  	<!-- stroke-dasharray:2300;
	stroke-dashoffset:2300;	 -->
    fill-opacity: 0;
  }
  80%{
    stroke-dashoffset: 0;
    fill-opacity: 0;
  }
  100%{
  	stroke-dashoffset:0;	 
    fill-opacity: 0;
  }
}
</style>
<path class="st0" d="M316,374.6H166.9c0.4-1.6,1.6-2.7,2.8-3.8c8.1-8,15.3-16.6,21.6-26.1c5.2-7.8,9.4-16.2,11.5-25.4
	c3.7-16.8,0.7-32.2-11.1-45.1c-7.9-8.6-18-13.4-29.8-13.9c-16.3-0.6-28.4,6.7-36.9,20.3c-1.4,2.2-2.7,4.5-3.6,7l-2.8,5.8l-1.5-3.3
	c0,0,0,0-4.7-10.5c-7.1-11.1-17.1-17.9-30.1-19.2c-11.9-1.2-22.6,2.3-31.8,10c-9.4,7.9-14.7,18.2-16.3,30.3
	c-1.4,10.7,0.8,20.9,5.3,30.6c4.5,9.9,10.7,18.8,17.7,27.2c3.6,4.2,7.1,8.4,11,12.3c4,4,4,4,4,4H17.8"/>
<path class="st0" d="M377.8,375c0,0,0,0,173.2,0c0.4,0-0.8,0.2-1,0.5c-5.5,8-13.1,14.3-17.4,23.3c-3.6,7.4-5.7,14.9-3.7,23.1
	c2.5,9.8,9.6,16.5,19.3,16.3c6.7-0.2,11.4-3.7,14.3-9.5c3.2-6.5,3.2-6.5,3.2-6.5l4.3,8.8c2.5,3.7,5.9,6.1,10.1,6.9
	c9.9,1.8,17.6-4.2,20.8-12.2c3.8-9.5,2.1-18.4-2.5-27.1c-3.7-6.9-8.4-13.1-14-18.6c-1.3-1.2-2.4-2.5-3-4.3c93.7,0,93.7,0,93.7,0"/>
<path class="st0" d="M118.6,289.2"/>
</svg>
