<?xml version="1.0" encoding="utf-8"?>
<!-- Generator: Adobe Illustrator 19.0.0, SVG Export Plug-In . SVG Version: 6.00 Build 0)  -->
<svg version="1.1" id="Layer_1" xmlns="http://www.w3.org/2000/svg" xmlns:xlink="http://www.w3.org/1999/xlink" x="0px" y="0px"
	 viewBox="0 0 692 704" style="enable-background:new 0 0 692 704;" xml:space="preserve">
<g id="XMLID_2_">
<style>
svg .test{

    troke-width:10px;
    fill : transparent;
    stroke-dasharray: 5000;
    stroke-dashoffset: 5000;
    animation : animate 10s forwards;
    
}
@keyframes animate{
    from{
        stroke-dashoffset: 5000;
       stroke:#e76697;
      
    }
    to {
        fill:#e76697;
        stroke-dashoffset: 0;
        stroke:transparent;
        
    }
}
</style>
	<path id="XMLID_15_" stroke="transparent" class="test" d="M561.5,432.8c2-6.4,4.8-11.8,7.8-17c7-12.5,16.3-23.4,23.8-35.5c5.7-9.3,11.1-18.9,16.5-28.4
		c0.5-1,1.8-2.2,0.6-3.2c-2.5-2.1-0.7-3.8,0.3-5.4c7.8-12.9,15.7-25.9,22.5-39.4c7-14,13.8-28,17.3-43.5c1.4-6.4,3.7-12.6,3.8-19.2
		c-2.1-0.1-1.9,1.2-2.1,2.1c-7.3,36.7-25.9,68.3-44.7,99.8c-15.9,26.6-34,51.7-48.7,79c-0.6,1-1.1,2.2-3.7,2.6
		c2.3-4.7,4.1-8.9,6.3-12.8c11.8-20.3,24.9-39.8,36.9-60c10.3-17.3,20.8-34.5,29.6-52.8c7.9-16.4,14.8-32.9,19.1-50.6
		c5-20.5,4.8-41.1,0.5-61.6c-6-28.5-19.4-53.4-37.8-75.8C592.9,91,572.3,76.3,548,66.6c-17.7-7.1-36.2-10.3-55.1-10
		c-30.7,0.4-59.3,8.6-83.3,28.4c-21.5,17.7-35,40.6-39.9,68.4c-2.7,15.2-5.3,30.4-7.2,45.8c-0.2,1.4-0.6,2.7-1.1,4
		c-0.5,1.4-0.8,3.2-2.8,3.4c-1.8,0.2-2.8-1.2-3.7-2.5c-5.4-7.9-11.4-15.3-16.9-23.1c-2.5-3.5-6.9-3.2-9.1-6.9
		c-4.4-7.3-10.3-13.6-16-19.8c-20.6-22.7-45-39.4-75.4-45.9c-15.4-3.3-31-3.2-46.7-1.2c-35.4,4.4-66.1,18.7-92.3,42.5
		c-10.6,9.6-18.7,21.5-25.8,34c-16.8,29.6-24.4,61.4-24.6,95.4c-0.1,18.7,1.3,37.3,5.8,55.4c5.1,20.7,14.6,39.3,28.5,55.8
		c21.5,25.5,48,44.8,76.3,61.8c11.2,6.7,22.2,13.7,33.8,19.7c11.7,6,24,11.1,36.2,16.2c23.9,10,47.8,20,71.9,29.5
		c27.7,10.9,55.1,22.3,82.5,33.9c28.7,12.1,57,25,84.4,39.9c23.7,12.9,46.6,27.1,67.8,43.9c16,12.6,31,26.4,42.9,43.2
		c1.4,2,1.4,2,2.1,5.5c-3-1.5-4.6-3.9-6.5-6.1c-8.1-9.1-15.9-18.8-26.3-25.1c-20.8-12.7-40.8-26.5-62.6-37.6
		c-23.1-11.7-46.9-22.1-70.9-31.9c-17.1-6.9-35.2-10.6-52.3-17.4c-18.4-7.3-37.3-13.4-56-20.1c-28-10.1-56.1-19.7-83.8-30.5
		c-27.4-10.6-54.4-22.1-79.9-37c-16.7-9.7-33.3-19.5-48.8-31.2c-31.2-23.7-56.4-52.4-70.4-89.4c-9-23.8-14.6-48.5-14.6-74.4
		c0-20.1,0.2-40,4.7-59.7c7.4-32.4,20.7-61.9,42.3-87.4c24.8-29.3,55.3-50.4,91.5-62.5c38.2-12.8,77.1-15.9,116.5-4.2
		c24,7.2,45.5,19,65.1,34.5c6.2,4.9,6.3,5.1,9.8-2.2c6.4-13.6,14.7-26,24.6-37.3c11.6-13.2,25.3-23.8,40.6-32.4
		c15.1-8.6,31.4-14.6,48.2-18.2c19-4.1,38.4-6.2,58.1-3.8c20.9,2.5,41.1,7,60.3,15.7c17.3,7.9,33.2,18.1,47.2,31.1
		c18.3,17,33.3,36.5,44.6,58.7c9.6,18.9,16.5,38.8,20.1,60c3,18-0.7,35.7,0.2,53.5c0.2,4.5-1.8,9.4-3.4,14c-2.2,6.5-4,13.2-6.1,19.8
		c-4.1,13.4-9.8,26-16.5,38.2c-10.3,18.8-22.5,36.3-34.5,54c-14.3,21-32.9,38.8-45.6,60.8c-3.1,5.3-6.8,10.1-10.4,14.9
		C564.7,431.3,564,432.6,561.5,432.8z M373.6,67c24.5-24.5,54.6-38,88.1-43.8c33.3-5.7,66.5-4.2,98.9,7C555.4,25,527.8,18,513.9,17
		c-35.6-2.7-69.8,2.2-101.6,19.1C397.5,43.9,384.2,53.7,373.6,67z"/>
</g>
</svg>
