<?xml version="1.0" encoding="utf-8"?>
<!-- Generator: Adobe Illustrator 19.0.0, SVG Export Plug-In . SVG Version: 6.00 Build 0)  -->
<svg version="1.1" id="Layer_1" xmlns="http://www.w3.org/2000/svg" xmlns:xlink="http://www.w3.org/1999/xlink" x="0px" y="0px"
	 viewBox="0 0 692 704" style="enable-background:new 0 0 692 704;" xml:space="preserve">
<style type="text/css">
	.st0{clip-path:url(#SVGID_2_);}
</style>
<g>
	<defs>
		<rect id="SVGID_1_" x="-209" y="198" width="1110" height="307"/>
	</defs>
	<clipPath id="SVGID_2_">
		<use xlink:href="#SVGID_1_"  style="overflow:visible;"/>
	</clipPath>
	<g class="st0">
		<path d="M902,398c-2.3,0.1-4.6,0.3-7,0.3c-45,0-89.9,0-134.9,0c-1.8,0-3.6,0-6.3,0c5.2,6.4,11,11.1,15.5,16.9
			c9.4,12.2,18,24.9,20.3,40.4c2.7,18.3-1.4,34.3-17.2,45.8c-3.2,2.3-6.9,3.1-10.5,4.5c-5.3,0-10.7,0-16,0
			c-10.3-3.2-17.5-10-22.5-20c-4.9,10.5-12.3,16.8-22.5,20c-5.3,0-10.7,0-16,0c-22.9-6.1-32.3-31.9-27-53.9
			c3.6-14.5,11.6-26.6,20.8-38.1c4.3-5.3,9.2-9.9,14-15c-2.5-1.1-4.7-0.6-6.8-0.6c-212.8,0-425.6,0-638.3-0.1
			c-2.3,0-5.8,1.4-6.8-1.1c-0.8-1.9,2.5-3.6,4.1-5.2c16.9-16.3,32.8-33.5,45.4-53.4c8.9-14,16.1-28.7,18.9-45.2
			c6.5-39.1-16.3-79-58.6-87c-28.5-5.4-56.5,8.9-70,35.3c-2.6,5.2-4.8,10.6-6.9,16c-0.8,1.9-1.4,4.1-3.7,4.2c-2.5,0.1-3.5-2-4.3-4.1
			c-4-11.1-9.2-21.5-17.2-30.6c-9.6-10.9-21.3-18-35.3-20.7c-28.3-5.6-59,8.8-73.4,34c-13.9,24.4-13.5,49.5-3.1,74.7
			c8.9,21.6,22.8,39.9,38.5,57.1c7.8,8.6,16.1,16.8,24.4,24.9c-0.7,1.8-2.3,1.2-3.5,1.2c-33.8,0-67.6,0-101.5,0
			c-0.8,0-1.6-0.2-2.5-0.3c0-1.7,0-3.3,0-5c2.2-0.1,4.3-0.3,6.5-0.3c26.3,0,52.6,0,78.9,0c1.7,0,3.5,0.5,5.2-0.6
			c-8.4-9.9-17.5-18.6-25.2-28.6c-9.1-11.7-17.8-23.6-24-37.1c-8.3-17.9-13.5-36.5-10.9-56.7c2.1-16.4,8-31.1,18.6-43.7
			c12.3-14.6,28-23.7,46.9-26.9c8.3,0,16.7,0,25,0c27.6,5.5,45.5,22.6,56.6,48.4C-18.8,221.2-0.8,204.2,27,199c8,0,16,0,24,0
			c16.8,3.1,31.7,10,43.4,22.5c12.1,12.9,19.5,28.1,22,45.9c4.1,28.6-5.8,53.2-20.6,76.6c-10.4,16.5-23.1,31.1-36.8,45
			c-0.9,0.9-1.8,1.9-3.4,3.7c3,0,5.1,0,7.2,0c212.8,0,425.6,0,638.4,0.1c2.3,0,6.1-1.4,6.7,1.1c0.6,2.2-3,3.9-4.9,5.7
			c-16.7,15.9-32.4,32.6-38.3,55.9c-4,15.9,1.8,31.6,14.3,40c12.5,8.4,28,4.7,35.5-8.5c1.9-3.3,3.3-6.9,4.7-10.4
			c0.8-2.1,1.6-4.3,4.1-4.3c2.6,0,3.4,2.1,4.1,4.3c2.5,7.3,6,13.9,12.4,18.8c8.7,6.6,22.1,5.9,30.4-1.3
			c14.3-12.3,16.3-31.4,9.3-47.3c-8.6-19.7-22.4-35.5-38.6-49.5c-1.1-0.9-2.9-1.7-2.2-3.5c0.4-1.2,2.1-0.8,3.2-0.8
			c52.7,0,105.3,0,158,0.1c0.7,0,1.3,0.2,2,0.3C902,394.7,902,396.3,902,398z"/>
	</g>
</g>
</svg>
