<?xml version="1.0" encoding="utf-8"?>
<!-- Generator: Adobe Illustrator 19.0.0, SVG Export Plug-In . SVG Version: 6.00 Build 0)  -->
<svg version="1.1" id="Layer_1" xmlns="http://www.w3.org/2000/svg" xmlns:xlink="http://www.w3.org/1999/xlink" x="0px" y="0px"
	 viewBox="0 0 841.9 595.3" style="enable-background:new 0 0 841.9 595.3;" xml:space="preserve">
<style type="text/css">
	.loveLine{fill:none;stroke:#FFF;stroke-width:5;stroke-miterlimit:10;}
	path {
  stroke:#000;
 	stroke-dasharray: 1800;
  stroke-dashoffset: -1800;
  stroke-width:3;
  animation: my_animation 5s linear forwards;
 	 
}

@keyframes my_animation{
  0%{
  	<!-- stroke-dasharray:2300;
	stroke-dashoffset:2300;	 -->
    fill-opacity: 0;
  }
  80%{
    stroke-dashoffset: 0;
    fill-opacity: 0;
  }
  100%{
  	stroke-dashoffset:0;	 
    fill-opacity: 0;
  }
}
</style>

<path class="loveLine"  d="M838,330.5H722.7h-6.1c13.9,12.3,34.4,33.7,34.4,54.2c0,1.2-0.1,2.5-0.2,3.7c-1.6,15.4-12.1,23.3-21.2,24
	c-10.5,0.9-18.9-6.6-22.6-19.9c-0.2-0.9-1-1.5-1.9-1.5s-1.7,0.6-1.9,1.5c-3.7,13.3-12.1,20.8-22.6,19.9c-9.1-0.8-19.7-8.6-21.2-24
	c-0.1-1.2-0.2-2.4-0.2-3.7c0-20.4,20.5-41.9,34.4-54.2h-6.1h-224h-69.5H198.8c24.9-24.5,47.8-55.3,47.8-85.8c0-2.7-0.2-5.4-0.5-8.1
	c-3.3-29.1-25.2-51.3-53.2-53.9c-20.2-1.9-45.3,7.5-57.3,38.9c-12-31.4-37-40.8-57.3-38.9c-28,2.6-49.9,24.8-53.2,53.9
	c-0.3,2.6-0.5,5.4-0.5,8.1c0,30.5,22.9,61.4,47.8,85.8H3.3"/>
	
</svg>
